<svg width="32" height="32" viewBox="0 0 32 32" fill="none" xmlns="http://www.w3.org/2000/svg">
  <rect width="32" height="32" rx="8" fill="#FF6633"/>
  <path d="M8 16C8 14.9391 8.42143 13.9217 9.17157 13.1716C9.92172 12.4214 10.9391 12 12 12H20C21.0609 12 22.0783 12.4214 22.8284 13.1716C23.5786 13.9217 24 14.9391 24 16V20C24 21.0609 23.5786 22.0783 22.8284 22.8284C22.0783 23.5786 21.0609 24 20 24H12C10.9391 24 9.92172 23.5786 9.17157 22.8284C8.42143 22.0783 8 21.0609 8 20V16Z" stroke="white" stroke-width="2" stroke-linecap="round" stroke-linejoin="round"/>
  <path d="M12 8V12" stroke="white" stroke-width="2" stroke-linecap="round" stroke-linejoin="round"/>
  <path d="M16 8V12" stroke="white" stroke-width="2" stroke-linecap="round" stroke-linejoin="round"/>
  <path d="M20 8V12" stroke="white" stroke-width="2" stroke-linecap="round" stroke-linejoin="round"/>
</svg>